<mxfile host="app.diagrams.net" modified="2023-09-19T08:48:11.729Z" agent="Mozilla/5.0 (X11; Linux x86_64) AppleWebKit/537.36 (KHTML, like Gecko) Chrome/105.0.0.0 Safari/537.36" etag="TBuOBgDdmTygAJyCXpNV" version="21.7.5" type="github">
  <diagram name="Stránka-1" id="ZpzkcoT2kwUD5oxD1akg">
    <mxGraphModel dx="1360" dy="775" grid="1" gridSize="10" guides="1" tooltips="1" connect="1" arrows="1" fold="1" page="1" pageScale="1" pageWidth="827" pageHeight="1169" math="0" shadow="0">
      <root>
        <mxCell id="0" />
        <mxCell id="1" parent="0" />
        <mxCell id="gWNeeKPEFfgQiq1oXr0L-6" style="edgeStyle=orthogonalEdgeStyle;rounded=0;orthogonalLoop=1;jettySize=auto;html=1;entryX=0.5;entryY=0;entryDx=0;entryDy=0;" edge="1" parent="1" source="gWNeeKPEFfgQiq1oXr0L-1" target="gWNeeKPEFfgQiq1oXr0L-2">
          <mxGeometry relative="1" as="geometry" />
        </mxCell>
        <mxCell id="gWNeeKPEFfgQiq1oXr0L-1" value="rabbitMQ consumer" style="rounded=0;whiteSpace=wrap;html=1;" vertex="1" parent="1">
          <mxGeometry x="354" y="50" width="120" height="50" as="geometry" />
        </mxCell>
        <mxCell id="gWNeeKPEFfgQiq1oXr0L-2" value="existuje odesilatel a přijemce v keydb?" style="rounded=0;whiteSpace=wrap;html=1;" vertex="1" parent="1">
          <mxGeometry x="354" y="210" width="120" height="60" as="geometry" />
        </mxCell>
        <mxCell id="gWNeeKPEFfgQiq1oXr0L-5" value="registrace usera" style="rounded=0;whiteSpace=wrap;html=1;" vertex="1" parent="1">
          <mxGeometry x="354" y="340" width="120" height="60" as="geometry" />
        </mxCell>
      </root>
    </mxGraphModel>
  </diagram>
</mxfile>
